<svg width="1010" height="1010" viewBox="0 0 1010 1010" fill="none" xmlns="http://www.w3.org/2000/svg">
<path d="M649.182 675.654H53.6367C24.0566 675.654 0 651.588 0 622.018V53.6362C0 24.0664 24.0566 0 53.6367 0H822.637C852.197 0 876.254 24.0664 876.254 53.6362V341.999C876.254 353.165 867.209 362.199 856.055 362.199C844.898 362.199 835.853 353.165 835.853 341.999V53.6362C835.853 46.3374 829.926 40.3999 822.636 40.3999H53.6367C46.3379 40.3999 40.4004 46.3374 40.4004 53.6362V622.018C40.4004 629.316 46.3379 635.254 53.6367 635.254H649.182C660.337 635.254 669.382 644.289 669.382 655.454C669.382 666.619 660.337 675.654 649.182 675.654Z" fill="#00C4F0"/>
<path d="M521.708 809.4H354.546C343.39 809.4 334.346 800.365 334.346 789.2V675.654C334.346 664.489 343.39 655.454 354.546 655.454C365.701 655.454 374.746 664.489 374.746 675.654V769H501.509V675.654C501.509 664.489 510.553 655.454 521.708 655.454C532.864 655.454 541.909 664.489 541.909 675.654V789.2C541.909 800.365 532.864 809.4 521.708 809.4Z" fill="#00C4F0"/>
<path d="M649.182 541.908H20.2002C9.0449 541.908 0 532.873 0 521.708C0 510.543 9.0449 501.508 20.2002 501.508H649.182C660.337 501.508 669.382 510.543 669.382 521.708C669.382 532.873 660.337 541.908 649.182 541.908Z" fill="#00C4F0"/>
<path d="M588.582 809.4H287.673C276.517 809.4 267.473 800.365 267.473 789.2C267.473 778.035 276.517 769 287.673 769H588.582C599.736 769 608.781 778.035 608.781 789.2C608.781 800.365 599.736 809.4 588.582 809.4Z" fill="#00C4F0"/>
<path d="M956.363 1010H688.891C659.311 1010 635.255 985.934 635.255 956.363V387.982C635.255 358.412 659.311 334.345 688.891 334.345H956.363C985.943 334.345 1010 358.412 1010 387.982V956.363C1010 985.934 985.943 1010 956.363 1010ZM688.891 374.745C681.592 374.745 675.654 380.683 675.654 387.982V956.363C675.654 963.662 681.592 969.599 688.891 969.599H956.363C963.662 969.599 969.6 963.662 969.6 956.363V387.982C969.6 380.683 963.662 374.745 956.363 374.745H688.891Z" fill="#00C4F0"/>
<path d="M989.801 508.491H655.455C644.299 508.491 635.255 499.457 635.255 488.291C635.255 477.126 644.299 468.092 655.455 468.092H989.801C1000.96 468.092 1010 477.126 1010 488.291C1010 499.457 1000.96 508.491 989.801 508.491Z" fill="#00C4F0"/>
<path d="M989.801 876.273H655.455C644.299 876.273 635.255 867.238 635.255 856.073C635.255 844.908 644.299 835.873 655.455 835.873H989.801C1000.96 835.873 1010 844.908 1010 856.073C1010 867.238 1000.96 876.273 989.801 876.273Z" fill="#00C4F0"/>
<path d="M839.346 441.618H805.909C794.754 441.618 785.709 432.583 785.709 421.418C785.709 410.253 794.754 401.218 805.909 401.218H839.346C850.501 401.218 859.546 410.253 859.546 421.418C859.546 432.583 850.501 441.618 839.346 441.618Z" fill="#00C4F0"/>
</svg>
