<svg width="1010" height="1010" viewBox="0 0 1010 1010" fill="none" xmlns="http://www.w3.org/2000/svg">
<path d="M1010 1010H0V0H1010V1010ZM42.0835 967.916H967.916V42.0835H42.0835V967.916Z" fill="#00C4F0"/>
<path d="M984.027 239.39H34.3364V197.307H984.027V239.39Z" fill="#00C4F0"/>
<path d="M154.216 142.031H112.133V101.694H154.216V142.031Z" fill="#00C4F0"/>
<path d="M247.199 142.031H205.115V101.694H247.199V142.031Z" fill="#00C4F0"/>
<path d="M340.098 142.031H298.015V101.694H340.098V142.031Z" fill="#00C4F0"/>
<path d="M876.825 142.915H451.862V100.832H876.825V142.915Z" fill="#00C4F0"/>
<path d="M367.572 363.853H263.021V468.403H367.572V363.853Z" fill="#00C4F0"/>
<path d="M557.275 363.853H452.725V468.403H557.275V363.853Z" fill="#00C4F0"/>
<path d="M746.979 363.853H642.408V468.403H746.979V363.853Z" fill="#00C4F0"/>
<path d="M367.572 553.535H263.021V658.107H367.572V553.535Z" fill="#00C4F0"/>
<path d="M557.275 553.535H452.725V658.107H557.275V553.535Z" fill="#00C4F0"/>
<path d="M746.979 553.535H642.408V658.107H746.979V553.535Z" fill="#00C4F0"/>
<path d="M367.572 743.239H263.021V847.81H367.572V743.239Z" fill="#00C4F0"/>
<path d="M557.275 743.239H452.725V847.81H557.275V743.239Z" fill="#00C4F0"/>
<path d="M746.979 743.239H642.408V847.81H746.979V743.239Z" fill="#00C4F0"/>
</svg>
