<svg width="32" height="32" viewBox="0 0 32 32" fill="none" xmlns="http://www.w3.org/2000/svg">
<path d="M15.942 24.0952C14.7581 24.1003 13.5776 23.9684 12.424 23.7022C12.0811 23.6248 11.7447 23.5209 11.418 23.3912L12.231 24.7802L12.549 29.1202C12.549 29.6072 14.095 30.0012 16.001 30.0012C17.907 30.0012 19.453 29.6072 19.453 29.1202L19.705 24.7332L20.474 23.3872C20.1446 23.5189 19.8052 23.6243 19.459 23.7022C18.3057 23.9683 17.1256 24.1002 15.942 24.0952V24.0952ZM20.5 9.9732C19.0074 10.1588 17.5041 10.246 16 10.2342C14.4959 10.246 12.9927 10.1588 11.5 9.9732C11.0259 9.91569 10.5576 9.81801 10.1 9.6812C9.98086 9.64423 9.86537 9.59636 9.75501 9.5382L10.5 16.4002C10.5347 16.2822 10.5733 16.1642 10.616 16.0462C10.7024 15.805 10.8026 15.5689 10.916 15.3392C11.0281 15.1142 11.1537 14.8961 11.292 14.6862C11.4225 14.4876 11.5669 14.2985 11.724 14.1202C11.8664 13.9575 12.0237 13.8085 12.194 13.6752C12.3433 13.5579 12.507 13.4601 12.681 13.3842C12.8349 13.3182 13.0006 13.2842 13.168 13.2842C13.3578 13.2854 13.5437 13.3379 13.706 13.4362C13.9032 13.5613 14.0694 13.7295 14.192 13.9282C14.2248 13.9742 14.2473 14.0267 14.258 14.0822C14.267 14.1307 14.2717 14.1799 14.272 14.2292C14.2772 14.3214 14.2495 14.4124 14.194 14.4862C14.1725 14.5151 14.1446 14.5386 14.1126 14.5549C14.0805 14.5712 14.045 14.5799 14.009 14.5802C13.9731 14.5784 13.938 14.5685 13.9065 14.5512C13.8749 14.5339 13.8478 14.5096 13.827 14.4802C13.7556 14.3877 13.6927 14.289 13.639 14.1852C13.588 14.0858 13.5144 13.9998 13.424 13.9342C13.3488 13.8832 13.2599 13.856 13.169 13.8562C13.0017 13.8651 12.8417 13.9271 12.712 14.0332C12.5325 14.1682 12.3709 14.3255 12.231 14.5012C12.0614 14.7108 11.9086 14.9335 11.774 15.1672C11.6296 15.4147 11.5007 15.6708 11.388 15.9342C11.2798 16.1852 11.1906 16.4439 11.121 16.7082C11.059 16.9314 11.0254 17.1616 11.021 17.3932C11.0213 17.4628 11.0259 17.5322 11.035 17.6012C11.0429 17.668 11.0604 17.7334 11.087 17.7952C11.1091 17.8498 11.1433 17.8987 11.187 17.9382C11.2336 17.9765 11.2927 17.9964 11.353 17.9942C11.4436 17.99 11.5317 17.9639 11.61 17.9182C11.716 17.861 11.8165 17.7941 11.91 17.7182C12.0184 17.631 12.1219 17.5379 12.22 17.4392C12.324 17.3359 12.4207 17.2309 12.51 17.1242C12.5993 17.0175 12.6787 16.9155 12.748 16.8182C12.807 16.7376 12.8591 16.6524 12.904 16.5632L13.188 15.7132C13.2116 15.6341 13.2591 15.5642 13.324 15.5132C13.3743 15.4764 13.4347 15.4561 13.497 15.4552C13.5259 15.4552 13.5546 15.46 13.582 15.4692C13.6116 15.479 13.6387 15.4953 13.6612 15.517C13.6837 15.5386 13.701 15.565 13.712 15.5942C13.726 15.6305 13.7328 15.6693 13.732 15.7082C13.7325 15.8176 13.7221 15.9268 13.701 16.0342C13.681 16.1357 13.655 16.2358 13.623 16.3342C13.5917 16.4309 13.5567 16.5279 13.518 16.6252C13.4793 16.7225 13.4417 16.8245 13.405 16.9312C13.387 16.9678 13.3723 17.006 13.361 17.0452C13.3397 17.1119 13.3137 17.1922 13.283 17.2862C13.2523 17.3802 13.219 17.4882 13.183 17.6102L13.073 17.9752C13.035 18.0992 12.999 18.2209 12.965 18.3402C12.931 18.4595 12.9 18.5675 12.872 18.6642L12.803 18.9062C12.785 18.9712 12.773 19.0062 12.769 19.0222C12.7566 19.0663 12.7402 19.1091 12.72 19.1502C12.6978 19.1972 12.6714 19.242 12.641 19.2842C12.6127 19.3222 12.579 19.3559 12.541 19.3842C12.509 19.4104 12.4693 19.4251 12.428 19.4262C12.4007 19.4285 12.3734 19.4237 12.3485 19.4123C12.3236 19.4009 12.3021 19.3833 12.286 19.3612C12.2499 19.287 12.2347 19.2044 12.242 19.1222V19.0712C12.2411 19.0532 12.2411 19.0352 12.242 19.0172C12.255 18.9433 12.2744 18.8707 12.3 18.8002C12.3287 18.6942 12.362 18.5742 12.4 18.4402C12.438 18.3062 12.4807 18.1675 12.528 18.0242C12.574 17.8809 12.6153 17.7525 12.652 17.6392C12.544 17.7599 12.427 17.8799 12.301 17.9992C12.179 18.115 12.0493 18.2226 11.913 18.3212C11.7879 18.4121 11.6538 18.4902 11.513 18.5542C11.3915 18.6114 11.2593 18.642 11.125 18.6442C10.996 18.6477 10.8685 18.6151 10.757 18.5502C10.738 18.5392 10.721 18.5262 10.704 18.5132L11.119 22.8652C11.227 23.1362 13.261 23.8012 15.944 23.8012C18.627 23.8012 20.663 23.1352 20.769 22.8642L21.369 17.6902L21.226 17.8222C21.0717 17.967 20.9102 18.1038 20.742 18.2322C20.6051 18.3381 20.456 18.4274 20.298 18.4982C20.1515 18.5613 19.9935 18.5933 19.834 18.5922C19.7065 18.6007 19.5798 18.5654 19.475 18.4922C19.4334 18.4591 19.4003 18.4167 19.3782 18.3684C19.3561 18.3201 19.3458 18.2673 19.348 18.2142V18.1872C19.3471 18.1769 19.3471 18.1665 19.348 18.1562C19.3622 18.0672 19.3945 17.9821 19.443 17.9062C19.5036 17.8045 19.5704 17.7066 19.643 17.6132C19.7203 17.5119 19.8027 17.4092 19.89 17.3052C19.9773 17.2012 20.0583 17.1029 20.133 17.0102C20.1993 16.9287 20.2611 16.8435 20.318 16.7552C20.3587 16.7002 20.3839 16.6353 20.391 16.5672C20.3915 16.5541 20.389 16.541 20.3836 16.5291C20.3782 16.5171 20.3702 16.5065 20.36 16.4982C20.3303 16.4791 20.2952 16.4703 20.26 16.4732C20.1723 16.4746 20.0861 16.4962 20.008 16.5362C19.9157 16.5821 19.8293 16.6392 19.751 16.7062C19.6627 16.7813 19.5801 16.8628 19.504 16.9502C19.4239 17.0417 19.3485 17.1371 19.278 17.2362C19.208 17.3349 19.144 17.4349 19.086 17.5362C19.028 17.6375 18.9787 17.7299 18.938 17.8132L18.886 17.9252C18.8633 17.9732 18.839 18.0275 18.813 18.0882C18.787 18.1489 18.759 18.2109 18.729 18.2742C18.6997 18.3409 18.6727 18.4012 18.648 18.4552L18.582 18.6072C18.5627 18.6519 18.549 18.6825 18.541 18.6992C18.533 18.7159 18.5163 18.7569 18.491 18.8222C18.4677 18.8822 18.4407 18.9529 18.41 19.0342L18.31 19.2892L18.215 19.5422L18.137 19.7522C18.115 19.8122 18.1 19.8522 18.094 19.8752C18.0743 19.9359 18.0503 19.995 18.022 20.0522C17.9964 20.1048 17.9645 20.1542 17.927 20.1992C17.8928 20.2397 17.8515 20.2736 17.805 20.2992C17.7578 20.3249 17.7048 20.338 17.651 20.3372C17.5863 20.34 17.5225 20.3217 17.469 20.2852C17.4422 20.2598 17.4217 20.2285 17.4092 20.1938C17.3967 20.159 17.3925 20.1218 17.397 20.0852C17.3971 20.0353 17.4032 19.9856 17.415 19.9372C17.4274 19.8863 17.4427 19.8362 17.461 19.7872C17.479 19.7372 17.498 19.6872 17.518 19.6422C17.538 19.5972 17.555 19.5502 17.571 19.5062C17.681 19.2649 17.793 19.0232 17.907 18.7812C18.021 18.5392 18.1303 18.2992 18.235 18.0612C18.257 18.0112 18.277 17.9612 18.298 17.9142L18.279 17.9332C18.1531 18.0544 18.0195 18.1673 17.879 18.2712C17.7575 18.3628 17.6264 18.4409 17.488 18.5042C17.3699 18.5595 17.2414 18.5892 17.111 18.5912C17.0392 18.5934 16.9679 18.5798 16.902 18.5512C16.849 18.5269 16.803 18.4898 16.768 18.4432C16.733 18.3944 16.7084 18.3389 16.696 18.2802C16.696 18.2592 16.688 18.2362 16.685 18.2142C16.649 18.2422 16.613 18.2692 16.577 18.2952C16.46 18.3789 16.3351 18.4509 16.204 18.5102C16.1008 18.5598 15.9884 18.5874 15.874 18.5912C15.8295 18.5925 15.7852 18.5842 15.7442 18.567C15.7031 18.5497 15.6662 18.5239 15.636 18.4912C15.5656 18.3952 15.5332 18.2766 15.545 18.1582C15.5475 18.0278 15.5639 17.8981 15.594 17.7712C15.5359 17.8722 15.469 17.9679 15.394 18.0572C15.3132 18.1548 15.222 18.2434 15.122 18.3212C15.018 18.4018 14.9028 18.4668 14.78 18.5142C14.6485 18.5645 14.5088 18.5896 14.368 18.5882C14.3025 18.5885 14.2373 18.5801 14.174 18.5632C14.1137 18.5471 14.058 18.5173 14.011 18.4762C13.9611 18.4307 13.9224 18.3742 13.898 18.3112C13.867 18.2285 13.8524 18.1405 13.855 18.0522C13.855 18.0522 13.855 18.0132 13.867 17.9422C13.8848 17.8284 13.9108 17.7161 13.945 17.6062C13.989 17.4529 14.0557 17.2529 14.145 17.0062C14.2343 16.7595 14.3637 16.4642 14.533 16.1202C14.5643 16.0419 14.6153 15.973 14.681 15.9202C14.7338 15.8814 14.7975 15.8603 14.863 15.8602C14.8931 15.8605 14.9231 15.8649 14.952 15.8732C14.9827 15.8816 15.0118 15.8952 15.038 15.9132C15.0642 15.9312 15.086 15.9548 15.102 15.9822C15.1192 16.0126 15.1275 16.0473 15.126 16.0822C15.1262 16.1055 15.1232 16.1287 15.117 16.1512C15.1008 16.207 15.0786 16.261 15.051 16.3122C15.0177 16.3789 14.9783 16.4549 14.933 16.5402C14.8877 16.6255 14.8403 16.7179 14.791 16.8172C14.741 16.9159 14.6947 17.0182 14.652 17.1242C14.6093 17.2301 14.5726 17.3382 14.542 17.4482C14.5123 17.5525 14.4949 17.6599 14.49 17.7682C14.4897 17.8099 14.5004 17.8509 14.521 17.8872C14.5309 17.9047 14.5456 17.919 14.5632 17.9286C14.5809 17.9381 14.601 17.9425 14.621 17.9412C14.758 17.9397 14.8909 17.8941 15 17.8112C15.1255 17.7191 15.2375 17.6101 15.333 17.4872C15.436 17.3562 15.5283 17.217 15.609 17.0712C15.6917 16.9232 15.7603 16.7875 15.815 16.6642C15.8543 16.5786 15.8877 16.4904 15.915 16.4002C15.9437 16.3118 15.9771 16.225 16.015 16.1402C16.0447 16.0681 16.0848 16.0007 16.134 15.9402C16.154 15.9149 16.1796 15.8945 16.2087 15.8807C16.2378 15.8668 16.2698 15.8598 16.302 15.8602C16.3356 15.859 16.3689 15.8659 16.3992 15.8803C16.4295 15.8948 16.4559 15.9163 16.476 15.9432C16.5195 16.0006 16.5421 16.0712 16.54 16.1432C16.5362 16.2047 16.5223 16.2652 16.499 16.3222C16.4717 16.3982 16.4383 16.4849 16.399 16.5822C16.3597 16.6795 16.3143 16.7839 16.263 16.8952C16.2143 17.0065 16.169 17.1192 16.127 17.2332C16.0878 17.3434 16.0545 17.4555 16.027 17.5692C16.0009 17.6691 15.9871 17.7719 15.986 17.8752C15.9838 17.8932 15.9858 17.9114 15.9918 17.9284C15.9978 17.9455 16.0077 17.9609 16.0207 17.9735C16.0336 17.9861 16.0494 17.9956 16.0666 18.0011C16.0838 18.0065 16.1021 18.008 16.12 18.0052C16.202 18.0002 16.2821 17.9781 16.355 17.9402C16.4597 17.89 16.5586 17.8287 16.65 17.7572C16.676 17.7372 16.702 17.7172 16.727 17.6962C16.7529 17.585 16.7863 17.4758 16.827 17.3692C16.8983 17.1812 16.9707 16.9942 17.044 16.8082L17.244 16.2982L18.169 13.9652C18.1952 13.8842 18.2472 13.814 18.317 13.7652C18.3729 13.7285 18.4381 13.7084 18.505 13.7072C18.5677 13.7071 18.6284 13.7287 18.677 13.7682C18.7048 13.7931 18.7263 13.8242 18.7398 13.8589C18.7534 13.8936 18.7586 13.9311 18.755 13.9682C18.7543 14.015 18.7455 14.0614 18.729 14.1052C18.7097 14.1583 18.6876 14.2103 18.663 14.2612C18.6123 14.3745 18.5517 14.5132 18.481 14.6772C18.4103 14.8412 18.335 15.0195 18.255 15.2122C18.1743 15.4049 18.092 15.6049 18.008 15.8122L17.761 16.4212C17.681 16.6212 17.6057 16.8085 17.535 16.9832L17.353 17.4442C17.3278 17.5077 17.3057 17.5725 17.287 17.6382C17.2669 17.703 17.2561 17.7703 17.255 17.8382C17.2535 17.8683 17.2597 17.8982 17.273 17.9252C17.2804 17.9367 17.2909 17.9459 17.3033 17.9517C17.3157 17.9576 17.3294 17.9598 17.343 17.9582C17.3989 17.9546 17.4534 17.9392 17.503 17.9132C17.5752 17.8787 17.6447 17.8389 17.711 17.7942C17.7857 17.7449 17.863 17.6882 17.943 17.6242C18.023 17.5602 18.103 17.4935 18.183 17.4242C18.2623 17.3575 18.3383 17.2889 18.411 17.2182C18.4837 17.1475 18.5483 17.0842 18.605 17.0282C18.6184 17.0147 18.6344 17.0042 18.652 16.9972C18.686 16.8972 18.718 16.7972 18.745 16.6972C18.761 16.6539 18.7833 16.5922 18.812 16.5122C18.8414 16.4322 18.8747 16.3538 18.912 16.2772C18.9454 16.2059 18.987 16.1388 19.036 16.0772C19.0535 16.054 19.0759 16.035 19.1017 16.0217C19.1275 16.0083 19.156 16.001 19.185 16.0002C19.2168 15.9973 19.2488 16.0008 19.2791 16.0104C19.3095 16.02 19.3377 16.0356 19.362 16.0562C19.3816 16.0787 19.3966 16.1049 19.406 16.1332C19.4155 16.1615 19.4192 16.1914 19.417 16.2212C19.4163 16.2443 19.4143 16.2673 19.411 16.2902C19.411 16.3212 19.402 16.3552 19.396 16.3902C19.39 16.4252 19.383 16.4582 19.376 16.4902C19.3712 16.5137 19.3645 16.5368 19.356 16.5592C19.4313 16.4772 19.5127 16.3959 19.6 16.3152C19.6855 16.236 19.7764 16.1628 19.872 16.0962C19.9619 16.0333 20.0581 15.98 20.159 15.9372C20.2516 15.8975 20.3512 15.8768 20.452 15.8762C20.5197 15.8763 20.5871 15.886 20.652 15.9052C20.7154 15.9232 20.7753 15.9519 20.829 15.9902C20.881 16.0275 20.9243 16.0756 20.956 16.1312C20.9901 16.1922 21.007 16.2613 21.005 16.3312C21.0026 16.441 20.977 16.549 20.93 16.6482C20.877 16.766 20.8141 16.879 20.742 16.9862C20.6667 17.0995 20.5853 17.2099 20.498 17.3172C20.4107 17.4245 20.3287 17.5222 20.252 17.6102L20.059 17.8342C20.023 17.8693 19.9954 17.912 19.978 17.9592C19.9776 17.9856 19.9877 18.0112 20.006 18.0302C20.032 18.0508 20.065 18.0605 20.098 18.0572C20.1529 18.0501 20.2053 18.0303 20.251 17.9992C20.3493 17.9389 20.4436 17.872 20.533 17.7992C20.6543 17.7039 20.808 17.5762 20.994 17.4162C21.122 17.3062 21.271 17.1752 21.44 17.0262L22.248 9.5462C22.1377 9.60439 22.0222 9.65226 21.903 9.6892C21.4442 9.82348 20.9749 9.91849 20.5 9.9732V9.9732ZM16 8.2002C12.508 8.2002 9.67801 8.5902 9.67801 9.0722C9.67801 9.5542 12.5 9.9422 16 9.9422C19.5 9.9422 22.322 9.5522 22.322 9.0702C22.322 8.5882 19.488 8.2002 16 8.2002ZM18.524 9.3272C18.524 9.4402 18.188 9.5272 17.773 9.5272C17.358 9.5272 17.022 9.4352 17.022 9.3272C17.022 9.2192 17.358 9.1272 17.773 9.1272C18.188 9.1272 18.521 9.2122 18.521 9.3252L18.524 9.3272Z" fill="#00C4F0"/>
<path d="M17.17 9.23386C17.1663 9.23916 17.1643 9.24541 17.164 9.25185C17.164 9.32485 17.435 9.38385 17.764 9.38385C18.093 9.38385 18.364 9.32485 18.364 9.25185L19.154 6.05186L22.296 2.73485C22.362 2.65985 22.228 2.42686 22.004 2.22686C21.78 2.02686 21.538 1.95986 21.463 2.03586L18.122 5.55886L17.17 9.23386Z" fill="#00C4F0"/>
</svg>
