<svg width="480" height="480" viewBox="0 0 480 480" fill="none" xmlns="http://www.w3.org/2000/svg">
<path d="M398.67 259.56C383.29 259.64 369.97 263.33 358.81 268.84C354.73 260.69 350.59 253.52 349.9 248.19C349.09 241.97 348.15 238.25 349.13 230.84C350.11 223.43 354.4 212.93 354.34 212.14C354.28 211.35 353.38 207.58 344.51 207.51C335.64 207.45 328.05 209.22 327.16 211.56C326.27 213.9 324.56 219.17 323.5 224.67C321.95 232.71 305.79 261.4 296.62 276.4C293.62 270.54 291.07 265.38 290.54 261.3C289.73 255.08 288.79 251.36 289.77 243.95C290.75 236.54 295.04 226.04 294.98 225.25C294.92 224.46 294.02 220.69 285.15 220.62C276.28 220.56 268.69 222.33 267.8 224.67C266.91 227.01 265.95 232.48 264.14 237.78C262.32 243.07 240.85 290.92 235.22 303.33C232.35 309.65 229.86 314.73 228.1 318.19C228.09 318.18 228.09 318.17 228.09 318.17C228.09 318.17 227.98 318.4 227.8 318.79C226.29 321.74 225.4 323.37 225.4 323.37C225.4 323.37 225.41 323.39 225.43 323.43C224.23 325.6 222.95 327.61 222.32 327.61C221.88 327.61 220.99 321.84 222.51 313.92C225.71 297.32 233.38 271.44 233.31 270.54C233.27 270.08 234.74 265.57 228.3 263.21C222.04 260.92 219.81 264.74 219.24 264.75C218.69 264.76 218.28 266.1 218.28 266.1C218.28 266.1 225.25 236.99 204.98 236.99C192.3 236.99 174.74 250.86 166.09 263.43C160.63 266.41 148.94 272.79 136.55 279.6C131.79 282.22 126.93 284.89 122.32 287.43C122.01 287.08 121.69 286.74 121.37 286.39C96.78 260.16 51.34 241.61 53.26 206.34C53.96 193.52 58.42 159.76 140.59 118.82C207.9 85.28 261.79 94.51 271.1 114.96C284.4 144.19 242.3 198.5 172.4 206.34C145.77 209.33 131.74 199 128.25 195.16C124.58 191.11 124.03 190.93 122.66 191.69C120.43 192.93 121.84 196.5 122.66 198.63C124.75 204.06 133.31 213.69 147.91 218.49C160.76 222.71 192.03 225.02 229.84 210.39C272.2 194.01 305.27 148.43 295.55 110.34C285.67 71.6 221.43 58.86 160.63 80.46C124.4 93.32 85.23 113.5 57.06 139.84C23.57 171.16 18.23 198.43 20.43 209.82C28.25 250.3 84.04 276.66 106.38 296.19C105.28 296.8 104.24 297.37 103.3 297.89C92.1 303.43 49.57 325.69 38.93 349.2C26.86 375.87 40.85 395.01 50.11 397.59C78.8 405.57 108.24 391.21 124.07 367.61C139.89 344.02 137.96 313.29 130.7 299.27C130.61 299.1 130.51 298.93 130.42 298.75C133.31 297.04 136.26 295.3 139.18 293.58C144.88 290.23 150.48 287.11 155.33 284.47C152.61 291.91 150.62 300.84 149.59 313.73C148.37 328.87 154.58 348.44 162.7 356.14C166.28 359.53 170.58 359.61 173.3 359.61C182.75 359.61 187.06 351.75 191.81 342.45C197.63 331.05 202.8 317.77 202.8 317.77C202.8 317.77 196.32 353.63 213.98 353.63C220.42 353.63 226.89 345.28 229.78 341.03C229.79 341.08 229.79 341.1 229.79 341.1C229.79 341.1 229.96 340.82 230.29 340.27C230.96 339.25 231.34 338.6 231.34 338.6C231.34 338.6 231.35 338.53 231.37 338.41C233.96 333.92 239.7 323.68 248.3 306.79C259.42 284.97 270.08 257.63 270.08 257.63C270.08 257.63 271.07 264.31 274.32 275.37C276.23 281.87 280.29 289.06 283.5 295.96C280.92 299.54 279.34 301.59 279.34 301.59C279.34 301.59 279.35 301.63 279.38 301.7C277.32 304.44 275.01 307.39 272.59 310.27C263.81 320.72 253.36 332.66 251.96 336.1C250.31 340.16 250.7 343.14 253.89 345.55C256.22 347.3 260.36 347.58 264.69 347.29C272.58 346.76 278.12 344.8 280.86 343.61C285.13 342.1 290.1 339.73 294.76 336.3C303.37 329.97 308.56 320.92 308.06 308.92C307.78 302.31 305.68 295.76 303.01 289.58C303.79 288.46 304.57 287.32 305.36 286.18C318.93 266.34 329.46 244.54 329.46 244.54C329.46 244.54 330.45 251.22 333.7 262.28C335.34 267.87 338.59 273.98 341.51 279.96C328.75 290.33 320.84 302.38 318.09 310.28C313.01 324.9 316.99 331.52 324.45 333.03C327.83 333.71 332.61 332.16 336.2 330.64C340.67 329.16 346.04 326.69 351.06 323C359.67 316.67 367.95 307.81 367.45 295.82C367.22 290.36 365.74 284.94 363.73 279.74C374.55 275.23 388.55 272.73 406.39 274.81C444.66 279.28 452.16 303.17 450.73 313.17C449.29 323.17 441.27 328.67 438.58 330.33C435.9 331.99 435.08 332.57 435.3 333.8C435.63 335.59 436.87 335.53 439.16 335.14C442.31 334.61 459.25 327.01 459.98 308.55C460.89 285.09 438.44 259.35 398.67 259.56ZM103.7 359C91.02 372.83 73.32 378.05 65.72 373.65C57.52 368.9 60.77 348.54 76.32 333.86C85.8 324.92 98.04 316.68 106.16 311.61C108.01 310.5 110.72 308.87 114.02 306.89C114.57 306.58 114.88 306.41 114.88 306.41L114.87 306.39C115.51 306.01 116.16 305.62 116.83 305.21C122.5 326.1 117.01 344.49 103.7 359ZM196.05 296.23C191.64 306.99 182.4 334.53 176.77 333.05C171.94 331.78 169 310.85 175.81 290.25C179.23 279.88 186.55 267.49 190.85 262.68C197.77 254.94 205.39 252.41 207.24 255.55C209.59 259.55 198.82 289.48 196.05 296.23ZM272.34 332.63C270.47 333.61 268.75 334.22 267.96 333.75C267.37 333.4 268.73 332.11 268.73 332.11C268.73 332.11 278.27 321.84 282.03 317.17C284.22 314.45 286.75 311.22 289.51 307.62C289.53 307.98 289.54 308.34 289.54 308.69C289.52 320.99 277.64 329.29 272.34 332.63ZM331.11 319.23C329.71 318.24 329.95 315.03 334.54 305.02C336.34 301.09 340.46 294.48 347.6 288.16C348.43 290.76 348.93 293.25 348.92 295.57C348.83 311.05 337.79 316.83 331.11 319.23Z" fill="#00C4F0"/>
</svg>
