<svg width="511" height="495" viewBox="0 0 511 495" fill="none" xmlns="http://www.w3.org/2000/svg">
<g clip-path="url(#clip0_1_2)">
<path d="M9 230.065L185.686 488C219.602 437.331 286.431 314.698 370.764 213.084C425.143 152.982 505 75.7492 505 75.7492L469.082 0C469.082 0 354.553 106.561 312.221 157.349C269.889 208.137 192.203 312.862 192.203 312.862C185.703 301.433 105.251 162.741 86.3591 147.128L9 230.065Z" fill="#E2A200"/>
<path d="M440.197 100.706C439.638 110.23 439.992 120.339 437.636 129.528C437.004 129.973 436.372 130.418 435.739 130.863C434.26 126.232 437.007 119.47 436.839 114.151C437.636 108.698 436.778 102.93 438.324 97.6318C439.061 98.5921 439.749 99.5801 440.197 100.706Z" fill="#B9A95B"/>
<path d="M464.963 7C464.963 7 407.735 59.5301 361.075 104.815C314.414 150.099 188.594 328.218 188.594 328.218L84.5479 156.816L9 237.422L16.7341 245.278C27.9034 234.91 40.2004 219.646 52.1164 210.532C61.6553 202.868 69.8822 192.794 79.4769 185.197C84.3092 181.371 84.5242 181.311 87.9913 187.113C114.933 229.891 138.176 276.161 164.96 319.025C171.747 328.477 180.153 351.933 191.496 347.67C195.017 343.358 199.312 340.271 202.518 335.476C230.18 297.698 258.538 259.875 287.718 224.373C281.669 263.481 275.286 302.804 269.436 342.066C269.119 344.185 268.137 347.085 270.26 349C277.983 335.572 288.884 324.305 294.64 309.434C299.657 272.822 304.328 236.138 308.478 199.345C309.415 192.679 314.953 189.767 317.752 183.963C311.33 221.232 304.944 258.86 300.941 296.876C300.756 298.354 299.993 300.314 301.911 301.085C308.344 295.106 308.639 285.223 309.701 275.94C313.832 243.226 318.419 210.627 324.319 178.359C332.944 159.805 348.219 146.953 360 131.346C355.782 159.261 352.069 187.28 350.059 215.693C350.16 221.707 347.163 231.7 350.1 236.261C353.403 232.168 356.707 228.074 360.011 223.978C363.089 209.759 362.66 194.129 364.48 179.427C366.042 160.768 368.859 142.33 370.509 123.693C371.02 117.925 373.898 115.409 376.999 112.45C373.324 144.6 371.059 177.359 368.077 209.781C367.97 210.993 367.322 212.568 368.851 213.228C378.958 203.327 375.051 164.212 378.416 147.139C380.354 133.194 379.328 117.045 384.136 104.402C404.34 81.9297 425.813 61.2473 449.45 45.2437C447.434 72.7188 443.089 101.306 444.889 128.826C457.283 116.056 465.465 114.962 465.107 91.7818C465.396 70.6756 474.442 40.8692 469.395 21.9004L469.396 21.8986L477.426 37.0382V46.0498L479.993 47.0134L480 36.5871L464.963 7Z" fill="#B9A95C"/>
<path d="M508.979 73.7563C499.71 51.4297 489.14 30.0799 478.008 9.14209C473.783 -2.25351 464.809 -1.95543 457.187 4.35169C353.462 82.4533 270.608 204.507 189.354 308.894C157.745 253.505 126.722 196.471 88.023 148.29C80.7904 138.02 73.7312 153.727 67.4869 158.283C45.5691 181.943 22.5389 204.247 1.8575 229.577C-5.00433 238.906 9.08025 250.25 12.8094 258.046C59.9131 321.505 104.393 387.76 148.802 454.1C169.732 479.074 179.884 522.605 202.235 470.607C281.544 339.276 369.536 214.075 477.461 117.88C486.942 106.249 519.344 93.123 508.979 73.7563ZM497.223 81.7204C480.638 95.6234 462.705 111.211 446.866 126.435C367.668 204.221 318.741 268.5 270.48 339.567C241.252 385.058 211.791 430.47 184.692 477.969C183.584 480.016 182.952 479.056 182.13 477.878C127.004 397.381 74.2768 314.43 14.3983 239.162C3.12919 235.663 84.0951 159.92 84.8959 162.166C118.303 210.744 148.334 262.919 177.875 315.224C181.056 319.409 183.444 330.183 188.765 329.009C252.244 251.008 311.294 166.047 380.894 95.548C407.667 68.1014 435.247 41.9717 464.386 18.4686C468.999 14.2516 494.824 72.5674 497.514 78.8535C497.968 79.9003 498.331 80.7911 497.223 81.7204Z" fill="#E4E4E4"/>
</g>
<defs>
<clipPath id="clip0_1_2">
<rect width="511" height="495" fill="white"/>
</clipPath>
</defs>
</svg>
