<svg width="800" height="800" viewBox="0 0 800 800" fill="none" xmlns="http://www.w3.org/2000/svg">
<path d="M399.997 249.098C318.432 249.098 251.818 314.155 249.218 395.106C229.58 405.398 216.147 425.971 216.147 449.638C216.147 483.573 243.758 511.185 277.694 511.185C283.85 511.185 289.794 510.265 295.406 508.576C322.547 534.747 359.403 550.905 399.996 550.905C483.208 550.905 550.906 483.213 550.906 400.004C550.907 316.791 483.209 249.098 399.997 249.098ZM254.022 449.639C254.022 436.583 264.641 425.964 277.694 425.964C290.744 425.964 301.363 436.583 301.363 449.639C301.363 462.69 290.744 473.309 277.694 473.309C264.642 473.309 254.022 462.688 254.022 449.639ZM399.997 513.032C372.236 513.032 346.802 502.951 327.115 486.276C334.727 476.031 339.242 463.351 339.242 449.637C339.242 419.043 316.802 393.605 287.522 388.887C293.124 331.756 341.424 286.968 399.997 286.968C462.323 286.968 513.029 337.672 513.029 400.001C513.029 462.328 462.323 513.032 399.997 513.032Z" fill="#00C4F0"/>
<path d="M620.189 273.893C628.449 262.714 633.342 248.907 633.342 233.972C633.342 196.854 603.145 166.657 566.029 166.657C551.086 166.657 537.27 171.557 526.091 179.824C488.123 157.976 444.98 146.261 399.994 146.261C332.22 146.261 268.498 172.657 220.575 220.583C172.652 268.507 146.256 332.225 146.256 400.003C146.256 467.774 172.652 531.496 220.575 579.42C268.501 627.349 332.22 653.738 399.994 653.738C467.771 653.738 531.493 627.347 579.417 579.42C627.343 531.496 653.738 467.774 653.738 400.003C653.741 355.015 642.029 311.866 620.189 273.893ZM595.472 233.972C595.472 250.207 582.263 263.41 566.033 263.41C549.798 263.41 536.589 250.207 536.589 233.972C536.589 217.737 549.798 204.532 566.033 204.532C582.263 204.531 595.472 217.737 595.472 233.972ZM552.639 552.642C511.868 593.411 457.66 615.868 399.997 615.868C342.339 615.868 288.131 593.411 247.361 552.642C206.588 511.871 184.134 457.66 184.134 400.003C184.134 342.342 206.588 288.134 247.361 247.361C288.131 206.593 342.34 184.137 399.997 184.137C436.597 184.137 471.776 193.232 503.033 210.278C500.25 217.653 498.715 225.633 498.715 233.972C498.715 271.091 528.912 301.288 566.031 301.288C574.364 301.288 582.344 299.756 589.719 296.973C606.765 328.23 615.864 363.407 615.864 400.004C615.863 457.658 593.412 511.869 552.639 552.642Z" fill="#00C4F0"/>
<path d="M756.575 400.003C756.575 304.756 719.483 215.213 652.135 147.865C584.787 80.519 495.243 43.428 399.997 43.428C304.754 43.428 215.21 80.519 147.865 147.866C80.516 215.215 43.425 304.758 43.425 400.004C43.425 495.247 80.516 584.79 147.865 652.139C215.214 719.489 304.757 756.575 399.997 756.575C486.328 756.575 567.973 726.1 632.65 670.244C642.319 675.396 653.337 678.329 665.035 678.329C703.129 678.329 734.124 647.339 734.124 609.243C734.124 591.801 727.612 575.861 716.911 563.69C742.804 513.696 756.575 457.917 756.575 400.003ZM174.645 625.354C114.45 565.162 81.3 485.129 81.3 400.003C81.3 314.873 114.45 234.84 174.645 174.648C234.84 114.455 314.871 81.303 399.997 81.303C485.129 81.303 565.159 114.455 625.354 174.648C685.545 234.84 718.697 314.873 718.697 400.003C718.697 450.524 706.979 499.232 684.902 543.079C678.607 541.185 671.939 540.154 665.035 540.154C626.941 540.154 595.947 571.149 595.947 609.24C595.947 621.826 599.343 633.625 605.25 643.799C547.876 692.27 475.977 718.7 399.997 718.7C314.871 718.7 234.84 685.547 174.645 625.354ZM665.035 640.453C647.825 640.453 633.824 626.453 633.824 609.24C633.824 592.033 647.825 578.032 665.035 578.032C682.245 578.032 696.249 592.033 696.249 609.24C696.249 626.453 682.245 640.453 665.035 640.453Z" fill="#00C4F0"/>
</svg>
